<svg aria-hidden="true" style="position: absolute; width: 0; height: 0; overflow: hidden;" version="1.1" xmlns="http://www.w3.org/2000/svg" xmlns:xlink="http://www.w3.org/1999/xlink">
<defs>
<symbol id="icon-inst" viewBox="0 0 32 32">
<path d="M24.544 5.536c-0.38 0-0.751 0.113-1.067 0.324s-0.562 0.511-0.707 0.862c-0.145 0.351-0.183 0.737-0.109 1.109s0.257 0.715 0.525 0.983c0.268 0.268 0.611 0.451 0.983 0.525s0.758 0.036 1.109-0.109c0.351-0.145 0.651-0.391 0.862-0.707s0.324-0.687 0.324-1.067c0-0.509-0.202-0.998-0.562-1.358s-0.848-0.562-1.358-0.562zM31.904 9.408c-0.031-1.328-0.28-2.641-0.736-3.888-0.407-1.067-1.040-2.033-1.856-2.832-0.792-0.82-1.761-1.449-2.832-1.84-1.244-0.47-2.559-0.724-3.888-0.752-1.696-0.096-2.24-0.096-6.592-0.096s-4.896 0-6.592 0.096c-1.329 0.028-2.644 0.282-3.888 0.752-1.069 0.395-2.037 1.023-2.832 1.84-0.82 0.792-1.449 1.761-1.84 2.832-0.47 1.244-0.724 2.559-0.752 3.888-0.096 1.696-0.096 2.24-0.096 6.592s0 4.896 0.096 6.592c0.028 1.329 0.282 2.644 0.752 3.888 0.391 1.071 1.020 2.040 1.84 2.832 0.795 0.817 1.763 1.445 2.832 1.84 1.244 0.47 2.559 0.724 3.888 0.752 1.696 0.096 2.24 0.096 6.592 0.096s4.896 0 6.592-0.096c1.329-0.028 2.644-0.282 3.888-0.752 1.071-0.391 2.040-1.020 2.832-1.84 0.82-0.796 1.453-1.763 1.856-2.832 0.456-1.247 0.705-2.56 0.736-3.888 0-1.696 0.096-2.24 0.096-6.592s0-4.896-0.096-6.592zM29.024 22.4c-0.012 1.016-0.196 2.022-0.544 2.976-0.256 0.696-0.666 1.325-1.2 1.84-0.519 0.529-1.147 0.938-1.84 1.2-0.954 0.348-1.96 0.532-2.976 0.544-1.6 0.080-2.192 0.096-6.4 0.096s-4.8 0-6.4-0.096c-1.055 0.020-2.105-0.143-3.104-0.48-0.663-0.275-1.262-0.684-1.76-1.2-0.531-0.514-0.936-1.144-1.184-1.84-0.391-0.968-0.607-1.997-0.64-3.040 0-1.6-0.096-2.192-0.096-6.4s0-4.8 0.096-6.4c0.007-1.038 0.197-2.067 0.56-3.040 0.282-0.675 0.714-1.277 1.264-1.76 0.486-0.55 1.087-0.987 1.76-1.28 0.975-0.352 2.003-0.536 3.040-0.544 1.6 0 2.192-0.096 6.4-0.096s4.8 0 6.4 0.096c1.016 0.012 2.022 0.196 2.976 0.544 0.727 0.27 1.38 0.709 1.904 1.28 0.524 0.492 0.934 1.092 1.2 1.76 0.356 0.974 0.54 2.003 0.544 3.040 0.080 1.6 0.096 2.192 0.096 6.4s-0.016 4.8-0.096 6.4zM16 7.792c-1.623 0.003-3.208 0.487-4.556 1.391s-2.397 2.187-3.016 3.687c-0.619 1.5-0.779 3.15-0.461 4.741s1.102 3.052 2.25 4.199c1.149 1.146 2.611 1.926 4.203 2.242s3.241 0.152 4.74-0.47c1.499-0.622 2.78-1.674 3.681-3.023s1.382-2.936 1.382-4.558c0.002-1.080-0.209-2.149-0.622-3.147s-1.019-1.904-1.783-2.667-1.672-1.367-2.671-1.778c-0.999-0.411-2.069-0.62-3.148-0.616zM16 21.328c-1.054 0-2.084-0.312-2.96-0.898s-1.559-1.418-1.962-2.391c-0.403-0.973-0.509-2.045-0.303-3.078s0.713-1.983 1.458-2.728c0.745-0.745 1.694-1.253 2.728-1.458s2.105-0.1 3.078 0.303c0.974 0.403 1.806 1.086 2.391 1.962s0.898 1.906 0.898 2.96c0 0.7-0.138 1.392-0.406 2.039s-0.66 1.234-1.155 1.729c-0.495 0.495-1.082 0.887-1.729 1.155s-1.339 0.406-2.039 0.406z"></path>
</symbol>
<symbol id="icon-logo" viewBox="0 0 104 32">
<path fill="#b05e5e" style="fill: var(--color1, #b05e5e)" d="M16.078 7.705c-1.87 2.628-5.233 7.371-7.24 10.525-2.007 3.153-2.659 4.717-3.016 5.861s-0.419 1.872-0.299 2.353c0.12 0.481 0.421 0.717 0.745 0.785s0.671-0.032 0.94-0.302c0.269-0.27 0.459-0.711 0.904-1.688 0.446-0.976 1.147-2.486 2.116-4.205 0.97-1.719 2.209-3.648 3.387-5.268 1.178-1.622 2.296-2.935 3.396-4.288s2.185-2.743 3.050-3.872c0.865-1.129 1.51-1.995 2.226-2.565 0.714-0.57 1.497-0.846 2.928-0.996 1.431-0.149 3.508-0.173 5.429-0.221 1.922-0.047 3.688-0.121 5.022-0.121 1.333 0 2.235 0.072 2.871 0.068 0.636-0.005 1.006-0.088 1.206-0.408s0.229-0.877-0.010-1.287c-0.239-0.41-0.747-0.672-2.72-0.81s-5.41-0.151-7.798-0.107c-2.387 0.045-3.724 0.148-4.638 0.241s-1.406 0.177-1.634 0.020c-0.228-0.155-0.191-0.551-0.189-0.838s-0.026-0.466-0.302-0.543c-0.276-0.076-0.796-0.050-1.155 0.225s-0.555 0.8-0.77 1.092c-0.215 0.292-0.447 0.352-1.072 0.427s-1.64 0.165-3.61 0.415-4.892 0.663-7.432 1.194c-2.539 0.531-4.696 1.182-6.125 1.771-1.426 0.588-2.128 1.116-2.263 1.701-0.137 0.586 0.293 1.229 0.579 1.611 0.285 0.382 0.427 0.501 0.538 0.328 0.113-0.173 0.198-0.638 0.696-0.988s1.409-0.586 2.536-0.92c1.128-0.333 2.471-0.765 3.957-1.129s3.115-0.659 4.519-0.906 2.583-0.447 3.522-0.574c0.939-0.128 1.636-0.184 1.796 0.045 0.159 0.229-0.221 0.743-2.092 3.373z"></path>
<path fill="#b05e5e" style="fill: var(--color1, #b05e5e)" d="M20.504 16.247c0.783-0.582 0.953-0.652 1.149-0.573 0.194 0.080 0.414 0.31 0.488 0.573 0.073 0.265 0.001 0.563-0.2 0.873-0.202 0.31-0.532 0.632-0.935 1.068-0.403 0.437-0.878 0.988-1.491 1.685s-1.363 1.54-2.059 2.097c-0.696 0.559-1.338 0.83-1.751 0.777s-0.596-0.431-0.354-1.107c0.243-0.676 0.911-1.648 1.943-2.682 1.033-1.033 2.428-2.129 3.212-2.711zM20.965 13.714c-0.973 0.225-2.431 0.819-3.658 1.723-1.225 0.902-2.219 2.115-2.936 3.217-0.718 1.104-1.16 2.1-1.332 2.958s-0.074 1.578 0.248 2.128c0.323 0.549 0.87 0.928 1.422 1.029s1.11-0.075 1.703-0.461c0.593-0.387 1.223-0.984 1.627-1.349s0.585-0.498 0.719-0.48c0.134 0.018 0.222 0.187 0.159 0.474s-0.28 0.692-0.358 1.084c-0.077 0.391-0.014 0.769 0.095 1.068s0.267 0.518 0.532 0.719c0.265 0.2 0.639 0.383 1.052 0.375 0.412-0.008 0.865-0.207 1.843-1.017s2.482-2.23 3.483-3.27c1.002-1.039 1.498-1.696 1.818-2.149s0.46-0.702 0.503-0.872c0.043-0.171-0.013-0.264-0.246-0.204s-0.643 0.273-1.223 0.8c-0.58 0.528-1.331 1.37-2.050 2.096s-1.407 1.333-1.9 1.713c-0.493 0.381-0.791 0.532-1.009 0.56-0.218 0.026-0.355-0.073-0.16-0.362 0.195-0.289 0.722-0.767 1.353-1.539s1.364-1.837 1.86-2.698c0.494-0.862 0.75-1.518 0.852-2.006 0.101-0.488 0.049-0.806-0.030-1.1s-0.183-0.563-0.416-0.688c-0.233-0.124-0.593-0.104-0.819-0.066s-0.317 0.095-0.434 0.063c-0.116-0.032-0.258-0.15-0.341-0.29s-0.109-0.299-0.169-0.535c-0.058-0.236-0.151-0.548-0.441-0.775-0.29-0.228-0.778-0.37-1.751-0.144l0.003-0.004z"></path>
<path fill="#b05e5e" style="fill: var(--color1, #b05e5e)" d="M59.472 16.546c0.783-0.584 0.953-0.652 1.149-0.573 0.194 0.079 0.414 0.308 0.488 0.572 0.073 0.265 0.001 0.563-0.2 0.874-0.202 0.31-0.532 0.632-0.935 1.068-0.403 0.437-0.878 0.988-1.491 1.685s-1.363 1.54-2.059 2.097c-0.696 0.559-1.338 0.83-1.751 0.777s-0.596-0.431-0.354-1.107c0.243-0.676 0.91-1.648 1.943-2.682 1.033-1.033 2.428-2.129 3.212-2.711zM59.934 14.012c-0.973 0.225-2.431 0.82-3.658 1.723-1.225 0.902-2.219 2.115-2.936 3.217-0.718 1.104-1.16 2.1-1.332 2.958s-0.074 1.578 0.248 2.128c0.323 0.549 0.87 0.927 1.422 1.029s1.11-0.075 1.703-0.461c0.593-0.386 1.223-0.984 1.627-1.349s0.585-0.498 0.719-0.48c0.134 0.018 0.222 0.187 0.159 0.474s-0.28 0.692-0.358 1.084c-0.077 0.391-0.014 0.769 0.095 1.068s0.267 0.518 0.532 0.719c0.265 0.2 0.639 0.383 1.052 0.375 0.412-0.008 0.865-0.207 1.843-1.017s2.482-2.23 3.483-3.27c1.002-1.039 1.499-1.696 1.819-2.149s0.46-0.702 0.503-0.872c0.043-0.171-0.012-0.263-0.246-0.204s-0.643 0.273-1.223 0.8c-0.58 0.528-1.331 1.37-2.050 2.096s-1.407 1.333-1.9 1.713c-0.493 0.381-0.791 0.532-1.009 0.56-0.218 0.026-0.355-0.072-0.16-0.362 0.195-0.289 0.722-0.767 1.353-1.539s1.364-1.837 1.86-2.698c0.494-0.862 0.751-1.518 0.852-2.007 0.102-0.487 0.049-0.806-0.030-1.1s-0.183-0.563-0.416-0.688c-0.233-0.124-0.593-0.104-0.82-0.066s-0.317 0.095-0.434 0.063c-0.116-0.032-0.258-0.15-0.341-0.29s-0.109-0.299-0.169-0.535c-0.059-0.236-0.151-0.548-0.441-0.775-0.29-0.228-0.778-0.37-1.751-0.144l0.003-0.004z"></path>
<path fill="#b05e5e" style="fill: var(--color1, #b05e5e)" d="M44.539 2.233c-1.472 1.61-3.993 4.594-5.73 6.627s-2.69 3.114-3.299 3.719c-0.607 0.603-0.87 0.73-1.311 0.692s-1.060-0.241-1.495-0.362c-0.434-0.121-0.683-0.161-0.799 0.001-0.114 0.162-0.095 0.528 0.157 0.833 0.252 0.306 0.738 0.551 0.913 0.88 0.176 0.328 0.042 0.74-0.99 2.153-1.030 1.412-2.958 3.825-4.268 5.499-1.311 1.674-2.006 2.61-2.429 3.234s-0.574 0.935-0.365 1.219c0.208 0.282 0.775 0.535 1.526 0.183s1.684-1.308 2.626-2.46c0.942-1.151 1.893-2.499 2.716-3.631 0.825-1.132 1.522-2.047 2.025-2.614 0.503-0.565 0.812-0.781 1.186-0.651 0.376 0.132 0.818 0.609 1.63 1.495 0.813 0.887 1.995 2.18 3.132 3.381s2.228 2.306 3.269 3.348c1.041 1.042 2.030 2.021 3.143 2.888s2.348 1.619 3.391 2.129 1.895 0.775 2.682 0.949c0.787 0.174 1.508 0.257 2.002 0.256s0.764-0.088 0.907-0.266c0.143-0.178 0.159-0.447-0.094-0.752s-0.774-0.647-1.599-1.061c-0.826-0.414-1.956-0.897-3.361-1.817-1.404-0.92-3.081-2.274-4.606-3.674-1.523-1.401-2.893-2.847-4.101-4.046-1.207-1.198-2.253-2.147-2.934-2.789-0.682-0.643-0.999-0.978-1.268-1.259s-0.488-0.511-0.562-0.775c-0.074-0.264-0.001-0.563 0.532-1.001 0.535-0.439 1.53-1.016 3.241-1.611 1.71-0.596 4.135-1.209 6.621-1.947 2.486-0.736 5.031-1.597 6.733-2.129s2.556-0.739 3.040-1.117c0.484-0.378 0.594-0.929 0.532-1.307s-0.298-0.584-0.878-0.609c-0.58-0.025-1.504 0.132-2.738 0.493-1.233 0.362-2.777 0.93-4.151 1.366-1.372 0.436-2.575 0.742-3.637 1.043s-1.982 0.601-2.543 0.756c-0.561 0.155-0.761 0.169-0.806 0.013s0.062-0.481 0.614-1.178c0.553-0.697 1.548-1.765 2.34-2.667 0.791-0.901 1.377-1.635 1.868-2.219s0.883-1.018 0.942-1.458c0.059-0.44-0.216-0.884-0.519-1.191s-0.633-0.476-1.012-0.443-0.805 0.269-2.278 1.879z"></path>
<path fill="#b05e5e" style="fill: var(--color1, #b05e5e)" d="M93.43 9.519c1.159-0.351 2.783-0.941 4.174-1.591s2.548-1.361 3.28-1.917c0.732-0.556 1.038-0.958 1.332-1.418 0.295-0.461 0.579-0.98 0.168-1.275s-1.518-0.365-2.924-0.112-3.112 0.829-5.42 1.925c-2.306 1.096-5.213 2.713-7.608 4.12s-4.279 2.606-5.629 3.611c-1.35 1.005-2.166 1.819-2.614 2.283-0.449 0.465-0.531 0.581-0.393 0.68 0.138 0.1 0.494 0.182 1.27 0.165 0.775-0.018 1.968-0.138 2.551 0.030 0.583 0.167 0.556 0.622 0.492 0.96s-0.17 0.561-0.619 0.718c-0.449 0.158-1.242 0.25-2.154 0.353s-1.944 0.216-2.683 0.269c-0.739 0.053-1.185 0.046-1.632 0.46s-0.897 1.246-1.193 1.839c-0.296 0.593-0.441 0.945-0.542 1.617s-0.16 1.664-0.072 2.448c0.089 0.784 0.324 1.357 0.708 1.784s0.914 0.705 1.481 0.896c0.567 0.191 1.17 0.294 1.954 0.386 0.783 0.094 1.747 0.177 2.751 0.017s2.050-0.561 3.193-1.101c1.144-0.542 2.386-1.221 3.641-2.007s2.523-1.675 3.612-2.483c1.090-0.808 2.001-1.535 2.794-2.303s1.468-1.578 1.973-1.888c0.505-0.311 0.839-0.121 0.998 0.108s0.143 0.498-0.371 1.126c-0.513 0.628-1.522 1.618-3.035 2.866s-3.527 2.755-5.321 3.886-3.368 1.888-4.854 2.427c-1.488 0.538-2.89 0.856-4.325 0.976s-2.903 0.040-3.999-0.296c-1.097-0.337-1.82-0.931-2.347-1.61-0.525-0.679-0.853-1.443-1.010-2.213-0.157-0.772-0.144-1.552-0.001-2.466s0.415-1.963 0.645-2.647c0.231-0.684 0.421-1.003 0.457-1.213 0.037-0.211-0.082-0.314-0.327-0.324-0.245-0.009-0.614 0.074-0.896 0.080s-0.475-0.063-0.308-0.522c0.166-0.458 0.694-1.304 1.129-1.736 0.435-0.431 0.775-0.448 1.206-0.469s0.952-0.049 1.3-0.086c0.347-0.038 0.521-0.088 0.869-0.494 0.347-0.407 0.869-1.17 1.608-1.96s1.696-1.606 2.72-2.383c1.023-0.776 2.115-1.514 3.376-2.32s2.694-1.682 4.148-2.481c1.456-0.798 2.933-1.518 4.447-2.142s3.063-1.151 4.473-1.491c1.409-0.34 2.677-0.493 3.721-0.547 1.042-0.053 1.857-0.007 2.519 0.209s1.169 0.601 1.453 1.157c0.283 0.556 0.342 1.283 0.080 2.084s-0.846 1.677-1.641 2.487c-0.796 0.81-1.806 1.553-2.835 2.178s-2.077 1.129-2.939 1.478c-0.862 0.35-1.536 0.545-2.11 0.684s-1.046 0.217-1.359 0.21c-0.315-0.008-0.472-0.104-0.663-0.41s-0.417-0.819-0.63-1.195c-0.212-0.375-0.409-0.61-0.161-0.783s0.943-0.282 2.102-0.632z"></path>
</symbol>
<symbol id="icon-back" viewBox="0 0 32 32">
<path fill="#9e9e9e" style="fill: var(--color1, #9e9e9e)" d="M0.003 15.985c-0.001-0.311 0.108-0.612 0.306-0.852l6.663-7.986c0.226-0.272 0.551-0.443 0.904-0.475s0.703 0.076 0.975 0.302c0.272 0.226 0.443 0.551 0.476 0.903s-0.076 0.702-0.303 0.974l-5.97 7.134 5.757 7.134c0.111 0.136 0.193 0.293 0.243 0.461s0.066 0.345 0.047 0.519c-0.019 0.174-0.071 0.343-0.156 0.497s-0.198 0.29-0.335 0.4c-0.137 0.122-0.298 0.214-0.472 0.271s-0.359 0.077-0.541 0.060c-0.183-0.017-0.36-0.072-0.52-0.161s-0.301-0.21-0.412-0.356l-6.437-7.986c-0.167-0.246-0.247-0.542-0.227-0.839z"></path>
</symbol>
<symbol id="icon-cool" viewBox="0 0 36 32">
<path d="M8.286 12.698h-5.587c-0.423-0.002-0.834 0.141-1.165 0.406s-0.56 0.635-0.65 1.048c-1.141 5.085-1.179 10.356-0.11 15.458l0.112 0.538c0.088 0.418 0.317 0.792 0.648 1.062s0.745 0.417 1.172 0.418h5.579c0.493-0.001 0.965-0.197 1.314-0.545s0.544-0.821 0.545-1.314v-15.213c-0.001-0.493-0.197-0.965-0.545-1.314s-0.821-0.544-1.314-0.545zM7.75 29.234h-4.607l-0.023-0.111c-0.97-4.627-0.966-9.404 0.012-14.029h4.619v14.141z"></path>
<path d="M35.813 18.282l-1.653-4.409c-0.13-0.345-0.362-0.642-0.665-0.851s-0.662-0.323-1.031-0.324h-8.809v-2.21l0.716-1.587c0.359-0.794 0.556-1.651 0.582-2.522s-0.122-1.738-0.434-2.552c-0.312-0.814-0.782-1.557-1.383-2.188s-1.321-1.137-2.118-1.488c-0.436-0.19-0.929-0.201-1.373-0.032s-0.805 0.506-1.004 0.938l-6.011 13.158v1.876h1.776l6.158-13.48c0.869 0.536 1.514 1.37 1.813 2.346s0.232 2.028-0.188 2.959l-0.823 1.822-0.106 0.493v3.666l1.197 1.197h9.602l1.474 3.931v0.694l-5.088 8.943h-9.351l-6.465-3.792v2.777l5.389 3.161c0.278 0.163 0.594 0.249 0.917 0.249h9.849c0.32-0 0.634-0.085 0.91-0.246s0.506-0.392 0.664-0.67l5.333-9.372c0.155-0.273 0.237-0.582 0.237-0.896v-0.954c0-0.217-0.039-0.433-0.115-0.636z"></path>
</symbol>
<symbol id="icon-tick" viewBox="0 0 39 32">
<path d="M14.641 31.9l-0.596-0.607-0.318-0.315-6.968-6.968 0.004-0.004-6.763-6.763 7.89-7.89 6.754 6.754 16.107-16.107 7.89 7.89-24.001 24.010zM10.4 23.993l4.24 4.24 0.008-0.008 0.004 0.004 4.228-4.228 0.91-0.919 15.193-15.193-4.232-4.232-16.107 16.107-6.754-6.754-4.232 4.232 6.746 6.746-0.004 0.004z"></path>
</symbol>
<symbol id="icon-alarm" viewBox="0 0 31 32">
<path d="M15.284 4.539c-7.534 0-13.642 6.108-13.642 13.642s6.108 13.642 13.642 13.642c7.534 0 13.642-6.108 13.642-13.642s-6.108-13.642-13.642-13.642zM23.446 26.343c-1.888 1.888-4.373 3.064-7.031 3.325s-5.324-0.406-7.544-1.89c-2.22-1.484-3.858-3.691-4.633-6.247s-0.64-5.301 0.382-7.768c1.022-2.467 2.868-4.504 5.223-5.763s5.074-1.662 7.693-1.141c2.619 0.521 4.977 1.934 6.671 3.998s2.62 4.652 2.62 7.323c0.004 1.516-0.293 3.019-0.873 4.42s-1.433 2.673-2.508 3.742z"></path>
<path d="M16.334 9.785h-2.099v8.899l5.641 4.513 1.311-1.639-4.853-3.882v-7.891z"></path>
<path d="M9.969 0l-9.969 6.821 1.185 1.732 9.969-6.821-1.185-1.732z"></path>
<path d="M20.598 0l-1.185 1.732 9.969 6.821 1.185-1.732-9.969-6.821z"></path>
</symbol>
<symbol id="icon-click" viewBox="0 0 28 32">
<path d="M24.798 31.855h-9.568l-14.82-16.408c-0.142-0.157-0.251-0.34-0.321-0.54s-0.1-0.411-0.087-0.621c0.012-0.211 0.067-0.417 0.16-0.607s0.223-0.359 0.382-0.498c0.606-0.53 1.311-0.932 2.076-1.184s1.571-0.347 2.373-0.28c0.802 0.067 1.582 0.294 2.294 0.669s1.342 0.888 1.851 1.511l1.227 1.5h1.62v-11.945c0-0.915 0.364-1.793 1.011-2.44s1.525-1.011 2.44-1.011c0.915 0 1.793 0.364 2.44 1.011s1.011 1.525 1.011 2.44v7.422l8.39 2.331c0.335 0.094 0.63 0.295 0.841 0.572s0.325 0.615 0.326 0.963v10.598c0 0.289-0.078 0.572-0.227 0.82l-3.419 5.699zM16.174 29.731h7.422l2.725-4.541v-10.048l-9.556-2.655v-9.036c0-0.352-0.14-0.69-0.389-0.939s-0.587-0.389-0.939-0.389c-0.352 0-0.69 0.14-0.938 0.389s-0.389 0.587-0.389 0.939v14.069h-4.75l-1.865-2.279c-0.606-0.74-1.464-1.231-2.41-1.376s-1.911 0.063-2.712 0.586l13.802 15.28z"></path>
</symbol>
</defs>
</svg>